inDegrees=no
num_controls=7
num_derivatives=13
num_iterations=110
num_multipliers=7
num_parameters=0
num_slacks=7
num_states=26
objective=0.334956
objective_accelerations=0.035369
objective_balance=0.001302
objective_effort=0.026018
objective_height=0.270805
objective_ligament=0.001462
solver_duration=1201.667543
status=Solve_Succeeded
success=true
DataType=double
version=3
OpenSimVersion=4.5
endheader
time	/jointset/ground_pelvis/pelvis_tilt/value	/jointset/ground_pelvis/pelvis_tx/value	/jointset/ground_pelvis/pelvis_ty/value	/jointset/hip_r/hip_flexion_r/value	/jointset/hip_r/hip_adduction_r/value	/jointset/hip_r/hip_rotation_r/value	/jointset/back/lumbar_extension/value	/jointset/patellofemoral_r/patellar_flexion_r/value	/jointset/knee_r/knee_flexion_r/value	/jointset/knee_r/knee_adduction_r/value	/jointset/knee_r/knee_rotation_r/value	/jointset/ankle_r/ankle_angle_r/value	/jointset/subtalar_r/subtalar_angle_r/value	/jointset/ground_pelvis/pelvis_tilt/speed	/jointset/ground_pelvis/pelvis_tx/speed	/jointset/ground_pelvis/pelvis_ty/speed	/jointset/hip_r/hip_flexion_r/speed	/jointset/hip_r/hip_adduction_r/speed	/jointset/hip_r/hip_rotation_r/speed	/jointset/back/lumbar_extension/speed	/jointset/patellofemoral_r/patellar_flexion_r/speed	/jointset/knee_r/knee_flexion_r/speed	/jointset/knee_r/knee_adduction_r/speed	/jointset/knee_r/knee_rotation_r/speed	/jointset/ankle_r/ankle_angle_r/speed	/jointset/subtalar_r/subtalar_angle_r/speed	/forceset/tau_hip_flexion_r	/forceset/tau_hip_adduction_r	/forceset/tau_hip_rotation_r	/forceset/tau_knee_flexion_r	/forceset/tau_ankle_angle_r	/forceset/tau_subtalar_angle_r	/forceset/tau_lumbar_extension	lambda_cid13_p0	lambda_cid14_p0	lambda_cid14_p1	lambda_cid14_p2	lambda_cid14_p3	lambda_cid14_p4	lambda_cid14_p5	/jointset/ground_pelvis/pelvis_tilt/accel	/jointset/ground_pelvis/pelvis_tx/accel	/jointset/ground_pelvis/pelvis_ty/accel	/jointset/hip_r/hip_flexion_r/accel	/jointset/hip_r/hip_adduction_r/accel	/jointset/hip_r/hip_rotation_r/accel	/jointset/back/lumbar_extension/accel	/jointset/patellofemoral_r/patellar_flexion_r/accel	/jointset/knee_r/knee_flexion_r/accel	/jointset/knee_r/knee_adduction_r/accel	/jointset/knee_r/knee_rotation_r/accel	/jointset/ankle_r/ankle_angle_r/accel	/jointset/subtalar_r/subtalar_angle_r/accel	gamma_cid13_p0	gamma_cid14_p0	gamma_cid14_p1	gamma_cid14_p2	gamma_cid14_p3	gamma_cid14_p4	gamma_cid14_p5
1.5	-0.09498345695276311	0.04328592590360582	0.823392621593135	0.7925531133789496	-0.2262496271915118	-0.1260225505103186	-0.6216333075347549	0.9132671986115906	0.9132671986116826	-0.03216853119050817	0.1744974400033486	0.3048534990075017	0.1376074010527271	0.4801447343156091	0.2192954019109365	0.4801248770918026	-1.971108379707005	-0.004024875170128119	-0.1638890750510436	0.8008047982297835	-1.892407230224703	-1.892407230224696	0.4919955722151025	-8.32263045535164e-05	-0.519497558336072	-0.2129224785554863	-0.1629738320348356	0.01006294862986312	0.01788937919389782	-0.2829938545369567	-0.01150414589788803	-0.002273373114290268	0.2131159568089219	-10.56312387788922	-45.61485039058202	-7.500342683296157	-0.065755758430551	-0.7172454462717677	-629.1710763123715	59.42002397307463	0.1080561360239327	0.5035014197654134	-0.5128637485993023	-0.9073393902218438	-0.2557085585697966	-0.7135142112226267	1.675963474395588	-1.266982103686737	-1.266982103686699	0.3870335258397779	-0.008325701239847536	-0.6286424481403001	-0.4150944772009317	1.412755977876692e-07	1.267364364146185e-07	-7.395636056370733e-07	1.445714330473123e-06	-4.688623101354623e-09	2.962565104945613e-07	-6.651269013169074e-07
1.51	-0.090176977069098	0.04550377921916743	0.828167267067858	0.7727986955696601	-0.2263035051749962	-0.1276966614908145	-0.6135429529198657	0.8942822291837378	0.894282229183788	-0.02722758651913554	0.1744971441292716	0.2996275744906809	0.1354564739043592	0.4810803314232931	0.2242436977107636	0.474703412394098	-1.979510716580771	-0.006756463433764486	-0.1709294997543355	0.8171514289150054	-1.90432365733021	-1.904323657330233	0.4961664002667008	1.527838849389146e-05	-0.5256095920168383	-0.2172229840231386	-0.1558208778759194	0.008479578271537672	0.01801744494677025	-0.2794187812633768	-0.009715680251499881	-0.003124286098661805	0.2065723666019939	-11.55274273762626	-44.79630097710125	-7.595083946832314	-0.2008423339830278	-0.7231840186717599	-624.5805803483778	59.18653922433042	0.07568366437402124	0.4857643187375434	-0.5718516103180524	-0.7669977157831853	-0.282625700153848	-0.6985305299797621	1.596808490631115	-1.114551630241784	-1.114551630246256	0.4279511873876579	0.01783368720354545	-0.5907872509766569	-0.4315326315890202	1.414850773279428e-07	1.163534530822424e-07	-8.628069024771048e-07	1.306810239205723e-06	1.550728676544783e-08	2.889554137593192e-07	-7.483713269186499e-07
1.52	-0.08536326678110889	0.04777016962445654	0.8328846851396117	0.7529681910156689	-0.2263848473890949	-0.1294410215043639	-0.605292572873115	0.875185979761579	0.875185979761585	-0.02224576481873208	0.1744976123286443	0.2943428689524663	0.1332637408913065	0.4815908151803127	0.2290028198564376	0.4686793964979148	-1.986325728647704	-0.009517721293132487	-0.1779388816615194	0.8328098846020524	-1.914663229086081	-1.914663229086134	0.5001709780210107	6.958838660236707e-05	-0.5312537626148791	-0.2212836514924565	-0.1486679237169921	0.006896207913210557	0.01814551069963734	-0.2758437079897952	-0.007927214605112549	-0.003975199083036139	0.200028776395076	-12.54260534593166	-43.97865148017718	-7.688112750104349	-0.3383383362476895	-0.7399945088907327	-620.0050322522341	59.0115616747541	0.02303346589107366	0.4656666889347835	-0.6333739882950362	-0.5898744288551442	-0.2616424777161294	-0.7073056520010327	1.538328474760598	-0.9516110337596809	-0.9516110337596705	0.3537834663821274	-0.01716464022761827	-0.5350698315952096	-0.367126877534044	1.435733318599438e-07	1.06120577060784e-07	-1.009332390958097e-06	1.159413394309056e-06	3.870684270959125e-08	2.79274474855762e-07	-8.368524941479667e-07
1.53	-0.08054662145368649	0.05008314222495262	0.8375389169059763	0.7330775511067179	-0.2264937866401044	-0.1312560949457951	-0.5968890640992427	0.8559941861902032	0.8559941861901905	-0.0172255503981026	0.1744987071123881	0.2890041141007218	0.1310318775453035	0.4816652331921532	0.2335534872331943	0.4620733898086096	-1.991530647306146	-0.01226548777943308	-0.1850823600122457	0.8477716829367499	-1.923427786033126	-1.923427786033193	0.5038214226408978	0.0001414155219563894	-0.5364154274544014	-0.2250348851080619	-0.141620702490194	0.005440919896989261	0.01827475480852418	-0.2723025009825234	-0.006264951091932579	-0.005018076088543861	0.1935707013514406	-13.52926008609071	-43.23801501896839	-7.894436362713333	-0.4389928490825065	-0.665945546351028	-615.7199998599366	58.65266064766602	-0.01129918301953513	0.4440506558457131	-0.6881969484981394	-0.4450490856613337	-0.2806030575629715	-0.7186357019038494	1.457077427478755	-0.798753120636627	-0.7987531206386839	0.362942160047414	0.01830618032260653	-0.4944016672172148	-0.3710930262513912	1.476577848206554e-07	9.60471900571757e-08	-1.180595208057608e-06	1.002992998681292e-06	6.509777261090941e-08	2.670649536483699e-07	-9.308976993565815e-07
